<?xml version="1.0" encoding="UTF-8"?>
<svg width="62px" height="62px" viewBox="0 0 62 62" version="1.1" xmlns="http://www.w3.org/2000/svg" xmlns:xlink="http://www.w3.org/1999/xlink">
    <!-- Generator: Sketch 64 (93537) - https://sketch.com -->
    <title>codes-logo</title>
    <desc>Created with Sketch.</desc>
    <g id="codes-logo" stroke="none" stroke-width="1" fill="none" fill-rule="evenodd">
        <path d="M9,19 L19,19 L19,9 L9,9 L9,19 Z M20,7 L8,7 C7.448,7 7,7.447 7,8 L7,20 C7,20.553 7.448,21 8,21 L20,21 C20.552,21 21,20.553 21,20 L21,8 C21,7.447 20.552,7 20,7 L20,7 Z M45,17 L51,17 L51,11 L45,11 L45,17 Z M44,19 L52,19 C52.552,19 53,18.553 53,18 L53,10 C53,9.447 52.552,9 52,9 L44,9 C43.448,9 43,9.447 43,10 L43,18 C43,18.553 43.448,19 44,19 L44,19 Z M43,53 L53,53 L53,43 L43,43 L43,53 Z M42,55 L54,55 C54.552,55 55,54.553 55,54 L55,42 C55,41.447 54.552,41 54,41 L42,41 C41.448,41 41,41.447 41,42 L41,54 C41,54.553 41.448,55 42,55 L42,55 Z M29,50.5 L29,60.5 C29,61.328 28.329,62 27.5,62 C26.671,62 26,61.328 26,60.5 L26,57 L21.5,57 C20.671,57 20,56.328 20,55.5 C20,54.672 20.671,54 21.5,54 L26,54 L26,50.5 C26,49.672 26.671,49 27.5,49 C28.329,49 29,49.672 29,50.5 L29,50.5 Z M11.5,39 C12.329,39 13,39.672 13,40.5 C13,41.328 12.329,42 11.5,42 L6.5,42 C5.671,42 5,41.328 5,40.5 C5,39.672 5.671,39 6.5,39 L11.5,39 Z M0,40.5 L0,34.5 C0,33.672 0.671,33 1.5,33 L8.5,33 C9.329,33 10,33.672 10,34.5 C10,35.328 9.329,36 8.5,36 L3,36 L3,40.5 C3,41.328 2.329,42 1.5,42 C0.671,42 0,41.328 0,40.5 L0,40.5 Z M8,54 L10,54 L10,52 L8,52 L8,54 Z M7,56 L11,56 C11.552,56 12,55.553 12,55 L12,51 C12,50.447 11.552,50 11,50 L7,50 C6.448,50 6,50.447 6,51 L6,55 C6,55.553 6.448,56 7,56 L7,56 Z M18,44 L26,44 L26,36 L18,36 L18,44 Z M3,59 L15,59 L15,47 L3,47 L3,59 Z M27.5,33 L16.5,33 C15.671,33 15,33.672 15,34.5 L15,44 L1.5,44 C0.671,44 0,44.672 0,45.5 L0,60.5 C0,61.328 0.671,62 1.5,62 L16.5,62 C17.329,62 18,61.328 18,60.5 L18,47 L27.5,47 C28.329,47 29,46.328 29,45.5 L29,34.5 C29,33.672 28.329,33 27.5,33 L27.5,33 Z M37,59 L59,59 L59,37 L37,37 L37,59 Z M60.5,34 L35.5,34 C34.671,34 34,34.672 34,35.5 L34,60.5 C34,61.328 34.671,62 35.5,62 L60.5,62 C61.329,62 62,61.328 62,60.5 L62,35.5 C62,34.672 61.329,34 60.5,34 L60.5,34 Z M37,25 L59,25 L59,3 L37,3 L37,25 Z M60.5,0 L35.5,0 C34.671,0 34,0.672 34,1.5 L34,26.5 C34,27.328 34.671,28 35.5,28 L60.5,28 C61.329,28 62,27.328 62,26.5 L62,1.5 C62,0.672 61.329,0 60.5,0 L60.5,0 Z M3,25 L25,25 L25,3 L3,3 L3,25 Z M1.5,28 L26.5,28 C27.329,28 28,27.328 28,26.5 L28,1.5 C28,0.672 27.329,0 26.5,0 L1.5,0 C0.671,0 0,0.672 0,1.5 L0,26.5 C0,27.328 0.671,28 1.5,28 L1.5,28 Z" id="Fill-1" fill="#000000"></path>
    </g>
</svg>