<?xml version="1.0" encoding="UTF-8"?>
<svg preserveAspectRatio="xMidYMax meet" viewBox="0 0 523 91" version="1.1" xmlns="http://www.w3.org/2000/svg" xmlns:xlink="http://www.w3.org/1999/xlink">
    <!-- Generator: Sketch 63.1 (92452) - https://sketch.com -->
    <title>logo</title>
    <desc>Created with Sketch.</desc>
    <defs>
        <polygon id="path-1" points="0.105652174 0.669304348 58.4520652 0.669304348 58.4520652 59.0967174 0.105652174 59.0967174"></polygon>
    </defs>
    <g id="logo" stroke="none" stroke-width="1" fill="none" fill-rule="evenodd">
        <g id="Valtech-Logo-white" transform="translate(0.000000, 10.000000)">
            <g id="Group-3" transform="translate(0.000000, 20.369565)">
                <mask id="mask-2" fill="white">
                    <use xlink:href="#path-1"></use>
                </mask>
                <g id="Clip-2"></g>
                <polyline id="Fill-1" fill="#FFFFFE" mask="url(#mask-2)" points="37.2793696 59.0967174 21.0617609 59.0967174 0 0.669304348 17.2054565 0.669304348 29.3378478 43.7172826 29.5579565 43.7172826 42.0178696 0.669304348 58.4520652 0.669304348 37.2793696 59.0967174"></polyline>
            </g>
            <path d="M94.5234783,51.0229565 C92.9827174,52.2273913 90.4470652,53.2134783 84.051587,54.1995652 C78.3164348,55.1962174 73.5691304,56.6207609 73.5691304,62.9827826 C73.5691304,68.3710435 77.76,70.0174565 80.742913,70.0174565 C87.5768478,70.0174565 94.5234783,65.6223261 94.5234783,58.4855217 L94.5234783,51.0229565 Z M109.638783,68.04 C109.638783,74.9602174 111.184826,76.4939348 113.058391,77.1525 L113.058391,79.4662826 L96.3988043,79.4662826 C95.5236522,76.7140435 95.3000217,75.8353696 94.9707391,72.5407826 C91.4366739,76.1681739 86.4780652,81 75.9973696,81 C67.1736522,81 58.1333478,76.0554783 58.1333478,63.9776739 C58.1333478,52.554913 65.4092609,46.7352391 75.2278696,45.3089348 L89.1211304,43.2258261 C91.5493696,42.8859783 94.5234783,41.9016522 94.5234783,38.6123478 C94.5234783,32.1358696 88.3516304,31.8048261 84.3791087,31.8048261 C76.6647391,31.8048261 75.3388043,36.516913 74.8950652,39.9241957 L60.0051522,39.9241957 C61.7695435,22.0267174 74.2329783,19.506913 86.2544348,19.506913 C94.5234783,19.506913 109.638783,22.0267174 109.638783,36.4183043 L109.638783,68.04 L109.638783,68.04 Z" id="Fill-4" fill="#FFFFFE"></path>
            <polygon id="Fill-5" fill="#FFFFFE" points="118.904478 79.4662826 134.347304 79.4662826 134.347304 0.611021739 118.904478 0.611021739"></polygon>
            <path d="M163.688674,21.0388696 L173.283652,21.0388696 L173.283652,32.0249348 L163.688674,32.0249348 L163.688674,63.7593261 C163.688674,67.1666087 163.797848,68.4802174 170.089435,68.4802174 C171.075522,68.4802174 172.177826,68.3710435 173.283652,68.2601087 L173.283652,79.892413 C170.855413,80.0121522 168.425413,80.1266087 166.000696,80.1266087 L164.021478,80.1266087 C150.670565,80.1266087 148.245848,75.0693913 148.245848,67.4835652 L148.245848,32.0249348 L140.304326,32.0249348 L140.304326,21.0388696 L148.245848,21.0388696 L148.245848,5.22097826 L163.688674,5.22097826 L163.688674,21.0388696" id="Fill-6" fill="#FFFFFE"></path>
            <path d="M218.286196,44.4302609 C217.402239,34.9831957 211.339565,32.1358696 206.375674,32.1358696 C199.096239,32.1358696 195.236413,36.7511087 194.348935,44.4302609 L218.286196,44.4302609 Z M233.507152,62.3242174 C229.420174,76.3882826 217.735043,81 207.701609,81 C191.156478,81 178.471174,73.088413 178.471174,49.0455 C178.471174,42.012587 180.899413,19.506913 206.595783,19.506913 C218.175261,19.506913 234.165717,24.9955435 234.165717,51.6797609 L234.165717,54.4302391 L193.910478,54.4302391 C194.348935,58.8112826 195.236413,68.7003261 207.701609,68.7003261 C212.001652,68.7003261 216.403826,66.4992391 217.624109,62.3242174 L233.507152,62.3242174 L233.507152,62.3242174 Z" id="Fill-7" fill="#FFFFFE"></path>
            <path d="M292.195174,58.1562391 C291.636978,64.1960217 286.900239,81 265.389457,81 C243.325761,81 238.257978,64.1960217 238.257978,51.8998696 C238.257978,33.0110217 246.5235,19.506913 266.375543,19.506913 C275.646522,19.506913 290.869239,23.6713696 292.300826,41.9016522 L276.641413,41.9016522 C275.974043,38.1721304 273.772957,32.4633913 267.145043,32.4633913 L266.375543,32.4633913 C256.673152,32.4633913 254.135739,42.1305652 254.135739,49.3765435 C254.135739,55.7350435 254.35937,68.3710435 266.0445,68.3710435 C273.88213,68.3710435 276.526957,60.897913 276.526957,58.1562391 L292.195174,58.1562391" id="Fill-8" fill="#FFFFFE"></path>
            <path d="M352.193283,79.4662826 L336.750457,79.4662826 L336.750457,43.9918043 C336.750457,39.7093696 336.528587,32.4633913 326.706457,32.4633913 C319.879565,32.4633913 314.581109,37.0768696 314.581109,45.9675 L314.581109,79.4662826 L299.141804,79.4662826 L299.141804,0.611021739 L314.581109,0.611021739 L314.581109,28.6158913 L314.802978,28.6158913 C316.791,23.7928696 323.401304,19.506913 331.783043,19.506913 C343.25687,19.506913 352.193283,26.2052609 352.193283,39.0490435 L352.193283,79.4662826" id="Fill-9" fill="#FFFFFE"></path>
            <polygon id="Fill-10" fill="#FFFFFE" points="361.788261 79.4662826 392.673913 79.4662826 392.673913 68.4802174 361.788261 68.4802174"></polygon>
        </g>
        <rect id="Rectangle" stroke="#FFFFFF" stroke-width="4" x="404" y="2" width="117" height="86"></rect>
        <path d="M430.3,69.425 C433.55,69.425 437.275,67.9 437.275,64.1 C437.275,60.6 434.425,59.6 431.575,58.95 C428.7,58.3 425.85,57.975 425.85,55.775 C425.85,53.45 427.85,52.725 429.85,52.725 C432.3,52.725 434,53.825 434.275,56.375 L436.525,56.375 C436.375,52.45 433.6,50.725 429.95,50.725 C426.7,50.725 423.475,52.325 423.475,55.95 C423.475,59.225 426.35,60.05 429.2,60.675 C432.05,61.3 434.9,61.725 434.9,64.175 C434.9,66.75 432.525,67.425 430.375,67.425 C427.675,67.425 425.175,66.125 425.175,63.125 L422.925,63.125 C422.925,67.475 426.3,69.425 430.3,69.425 Z M442.525,69 L442.525,60.825 L451.925,60.825 L451.925,69 L454.3,69 L454.3,51.15 L451.925,51.15 L451.925,58.825 L442.525,58.825 L442.525,51.15 L440.15,51.15 L440.15,69 L442.525,69 Z M465.75,69.425 C471.425,69.425 474.3,64.925 474.3,60.075 C474.3,55.225 471.425,50.725 465.75,50.725 C460.075,50.725 457.2,55.225 457.2,60.075 C457.2,64.925 460.075,69.425 465.75,69.425 Z M465.75,67.425 C461.4,67.425 459.575,63.675 459.575,60.075 C459.575,56.475 461.4,52.725 465.75,52.725 C470.1,52.725 471.925,56.475 471.925,60.075 C471.925,63.675 470.1,67.425 465.75,67.425 Z M479.575,69 L479.575,61.7 L485.025,61.7 C488.575,61.725 490.5,59.725 490.5,56.425 C490.5,53.125 488.575,51.15 485.025,51.15 L477.2,51.15 L477.2,69 L479.575,69 Z M484.225,59.7 L479.575,59.7 L479.575,53.15 L484.225,53.15 C486.9,53.15 488.125,54.3 488.125,56.425 C488.125,58.55 486.9,59.725 484.225,59.7 Z" id="SHOP" fill="#FFFFFF" fill-rule="nonzero"></path>
    </g>
</svg>