<?xml version="1.0" encoding="UTF-8"?>
<svg width="43px" height="77px" viewBox="0 0 43 77" version="1.1" xmlns="http://www.w3.org/2000/svg" xmlns:xlink="http://www.w3.org/1999/xlink">
    <!-- Generator: Sketch 64 (93537) - https://sketch.com -->
    <title>phone-logo</title>
    <desc>Created with Sketch.</desc>
    <defs>
        <polygon id="path-1" points="0 0.128991453 42.877678 0.128991453 42.877678 77 0 77"></polygon>
        <polygon id="path-3" points="0 77 43 77 43 0 0 0"></polygon>
    </defs>
    <g id="phone-logo" stroke="none" stroke-width="1" fill="none" fill-rule="evenodd">
        <g id="Group-11">
            <g id="Group-3">
                <mask id="mask-2" fill="white">
                    <use xlink:href="#path-1"></use>
                </mask>
                <g id="Clip-2"></g>
                <path d="M36.8352008,74.6580812 L6.04247727,74.6580812 C3.98906439,74.6580812 2.31841667,72.9704979 2.31841667,70.8962692 L2.31841667,63.9103291 L40.5592614,63.9103291 L40.5592614,70.8962692 C40.5592614,72.9704979 38.8886136,74.6580812 36.8352008,74.6580812 L36.8352008,74.6580812 Z M40.5592614,51.9274509 L40.5592614,61.5682457 L2.31841667,61.5682457 L2.31841667,25.4636368 L6.80035227,25.4636368 L6.80035227,23.1218825 L2.31841667,23.1218825 L2.31841667,11.7635598 L40.5592614,11.7635598 L40.5592614,49.5853675 L35.0850682,49.5853675 L35.0850682,51.9274509 L40.5592614,51.9274509 Z M6.04247727,2.47091026 L36.8352008,2.47091026 C38.8886136,2.47091026 40.5592614,4.15849359 40.5592614,6.23255769 L40.5592614,9.42164103 L2.31841667,9.42164103 L2.31841667,6.23255769 C2.31841667,4.15849359 3.98906439,2.47091026 6.04247727,2.47091026 L6.04247727,2.47091026 Z M36.8352008,0.128991453 L6.04247727,0.128991453 C2.71062879,0.128991453 0,2.86709829 0,6.23255769 L0,70.8962692 C0,74.2617286 2.71062879,77 6.04247727,77 L36.8352008,77 C40.1670492,77 42.8778409,74.2617286 42.8778409,70.8962692 L42.8778409,6.23255769 C42.8778409,2.86709829 40.1670492,0.128991453 36.8352008,0.128991453 L36.8352008,0.128991453 Z" id="Fill-1" fill="#232020" mask="url(#mask-2)"></path>
            </g>
            <mask id="mask-4" fill="white">
                <use xlink:href="#path-3"></use>
            </mask>
            <g id="Clip-5"></g>
            <polygon id="Fill-4" fill="#232020" mask="url(#mask-4)" points="19 8 26 8 26 5 19 5"></polygon>
            <polygon id="Fill-6" fill="#232020" mask="url(#mask-4)" points="12 26 15 26 15 23 12 23"></polygon>
            <polygon id="Fill-7" fill="#232020" mask="url(#mask-4)" points="29.3228075 22 11 40.3231268 12.6771925 42 31 23.6770399"></polygon>
            <polygon id="Fill-8" fill="#232020" mask="url(#mask-4)" points="20 39.3808291 21.6194927 41 31 31.6193318 29.3805073 30"></polygon>
            <path d="M22,67 C20.8953792,67 20,68.1192635 20,69.5000882 C20,70.8807365 20.8953792,72 22,72 C23.1044797,72 24,70.8807365 24,69.5000882 C24,68.1192635 23.1044797,67 22,67" id="Fill-9" fill="#232020" mask="url(#mask-4)"></path>
            <polygon id="Fill-10" fill="#232020" mask="url(#mask-4)" points="29 52 32 52 32 49 29 49"></polygon>
        </g>
    </g>
</svg>